# xmcd
#
# Track frame offsets: 
#        150
#        14251
#        28861
#        47464
#        57830
#        73423
#        87994
#        102752
#        111612
#        127967
#        142966
#        153621
#        176556
#        192714
#        208693
#        228287
#        240809
#        252425
#
# Disc length: 3761 seconds
#
# Revision: 0
# Processed by: cddbd v1.5.1PL2 Copyright (c) Steve Scherf et al.
# Submitted via: ExactAudioCopy v0.95a5
#
DISCID=fd0eaf12
DTITLE=Kitchen Duty - Kettle Of Fish
DYEAR=2002
DGENRE=Blues
TTITLE0=Julie's House
TTITLE1=4 Chords 4 Leo
TTITLE2=There But For Fortune
TTITLE3=Red River
TTITLE4=Should've Learnt My Lesson
TTITLE5=Bumble Bee
TTITLE6=Barley And Grape Rag
TTITLE7=In Heinrich's Kitchen
TTITLE8=Pamela Brown
TTITLE9=Some Kind Of Jinx
TTITLE10=The Stroll
TTITLE11=Louise
TTITLE12=The Cuckoo
TTITLE13=Rings
TTITLE14=Outskirts Of Town
TTITLE15=Don't Know Where I'm Going
TTITLE16=Halleluja, I Love Her So
TTITLE17=The Beetles' Language
EXTD=
EXTT0=
EXTT1=
EXTT2=
EXTT3=
EXTT4=
EXTT5=
EXTT6=
EXTT7=
EXTT8=
EXTT9=
EXTT10=
EXTT11=
EXTT12=
EXTT13=
EXTT14=
EXTT15=
EXTT16=
EXTT17=
PLAYORDER=
